<?xml version="1.0" standalone="no"?>
<!DOCTYPE svg PUBLIC "-//W3C//DTD SVG 20010904//EN"
 "http://www.w3.org/TR/2001/REC-SVG-20010904/DTD/svg10.dtd">
<svg version="1.0" xmlns="http://www.w3.org/2000/svg"
 width="300.000000pt" height="300.000000pt" viewBox="0 0 300.000000 300.000000"
 preserveAspectRatio="xMidYMid meet">

<g transform="translate(0.000000,300.000000) scale(0.100000,-0.100000)"
fill="#000000" stroke="none">
<path d="M1439 2470 c-152 -19 -284 -68 -414 -155 -174 -115 -295 -269 -370
-470 l-23 -59 -68 -21 c-108 -33 -192 -83 -270 -160 -202 -201 -243 -528 -97
-773 77 -129 197 -225 348 -279 l80 -28 875 -3 c572 -2 902 1 954 7 208 28
383 189 425 389 39 189 -15 369 -149 495 -60 57 -124 94 -211 120 -12 4 -17
23 -22 79 -27 360 -283 690 -627 810 -129 45 -304 64 -431 48z m278 -156 c160
-33 299 -110 414 -230 150 -157 215 -313 226 -546 l6 -126 30 -6 c16 -3 40 -6
53 -6 45 0 133 -41 181 -85 193 -173 147 -498 -85 -612 l-57 -28 -900 -3
c-665 -2 -914 0 -955 9 -133 28 -269 136 -328 260 -144 301 40 648 372 701
l78 13 19 75 c73 291 310 520 606 584 91 19 247 20 340 0z"/>
<path d="M1561 1794 c-91 -46 -139 -153 -111 -246 l12 -41 -196 -196 c-163
-164 -196 -202 -196 -226 0 -43 134 -175 178 -175 72 0 97 82 42 135 -16 16
-30 34 -30 39 0 6 69 80 153 164 l153 152 33 -11 c50 -17 124 -6 178 27 117
72 130 247 26 346 -66 63 -156 74 -242 32z m143 -145 c54 -42 25 -119 -45
-119 -43 0 -69 27 -69 71 0 30 40 69 70 69 10 0 29 -9 44 -21z"/>
</g>
</svg>
